<?xml version="1.0" encoding="utf-8"?>
<!-- Generator: Adobe Illustrator 24.2.1, SVG Export Plug-In . SVG Version: 6.00 Build 0)  -->
<svg version="1.1" id="Layer_1" xmlns="http://www.w3.org/2000/svg" xmlns:xlink="http://www.w3.org/1999/xlink" x="0px" y="0px"
	 viewBox="0 0 24 24" enable-background="new 0 0 24 24" xml:space="preserve">
<path fill-rule="evenodd" clip-rule="evenodd" fill="#1F6EE5" d="M21.3,20.2c-0.1,0.1-0.2,0.2-0.4,0.2H3.1c-0.2,0-0.3-0.1-0.4-0.2
	c-0.1-0.1-0.1-0.3,0-0.5L4.3,17c0.7-1.2,1.1-2.7,1.1-4.1v-2.4c0-2.9,1.9-5.5,4.7-6.3V2.6c0-1,0.8-1.9,1.9-1.9s1.9,0.8,1.9,1.9v1.7
	c2.8,0.8,4.7,3.4,4.7,6.3v2.4c0,1.4,0.4,2.9,1.1,4.1l1.6,2.7C21.4,19.9,21.4,20.1,21.3,20.2z M12,23.3c-1.3,0-2.4-0.7-3-1.9H15
	C14.4,22.5,13.3,23.3,12,23.3L12,23.3z"/>
</svg>
